<svg id="visual" viewBox="0 0 1440 900" width="1440" height="900" xmlns="http://www.w3.org/2000/svg" xmlns:xlink="http://www.w3.org/1999/xlink" version="1.1"><rect x="0" y="0" width="1440" height="900" fill="#001220"></rect><path d="M0 586L34.3 588.3C68.7 590.7 137.3 595.3 205.8 585.2C274.3 575 342.7 550 411.2 561C479.7 572 548.3 619 617 626.8C685.7 634.7 754.3 603.3 823 601.3C891.7 599.3 960.3 626.7 1028.8 625.8C1097.3 625 1165.7 596 1234.2 591.7C1302.7 587.3 1371.3 607.7 1405.7 617.8L1440 628L1440 901L1405.7 901C1371.3 901 1302.7 901 1234.2 901C1165.7 901 1097.3 901 1028.8 901C960.3 901 891.7 901 823 901C754.3 901 685.7 901 617 901C548.3 901 479.7 901 411.2 901C342.7 901 274.3 901 205.8 901C137.3 901 68.7 901 34.3 901L0 901Z" fill="#fcaf3c"></path><path d="M0 618L34.3 616.2C68.7 614.3 137.3 610.7 205.8 617C274.3 623.3 342.7 639.7 411.2 658.2C479.7 676.7 548.3 697.3 617 698.8C685.7 700.3 754.3 682.7 823 676.8C891.7 671 960.3 677 1028.8 668.7C1097.3 660.3 1165.7 637.7 1234.2 624.8C1302.7 612 1371.3 609 1405.7 607.5L1440 606L1440 901L1405.7 901C1371.3 901 1302.7 901 1234.2 901C1165.7 901 1097.3 901 1028.8 901C960.3 901 891.7 901 823 901C754.3 901 685.7 901 617 901C548.3 901 479.7 901 411.2 901C342.7 901 274.3 901 205.8 901C137.3 901 68.7 901 34.3 901L0 901Z" fill="#ff9e43"></path><path d="M0 699L34.3 694C68.7 689 137.3 679 205.8 680C274.3 681 342.7 693 411.2 703C479.7 713 548.3 721 617 724.3C685.7 727.7 754.3 726.3 823 714.3C891.7 702.3 960.3 679.7 1028.8 684.2C1097.3 688.7 1165.7 720.3 1234.2 726.5C1302.7 732.7 1371.3 713.3 1405.7 703.7L1440 694L1440 901L1405.7 901C1371.3 901 1302.7 901 1234.2 901C1165.7 901 1097.3 901 1028.8 901C960.3 901 891.7 901 823 901C754.3 901 685.7 901 617 901C548.3 901 479.7 901 411.2 901C342.7 901 274.3 901 205.8 901C137.3 901 68.7 901 34.3 901L0 901Z" fill="#ff8e4b"></path><path d="M0 740L34.3 740C68.7 740 137.3 740 205.8 750.5C274.3 761 342.7 782 411.2 792.8C479.7 803.7 548.3 804.3 617 802C685.7 799.7 754.3 794.3 823 783.2C891.7 772 960.3 755 1028.8 746.3C1097.3 737.7 1165.7 737.3 1234.2 749.2C1302.7 761 1371.3 785 1405.7 797L1440 809L1440 901L1405.7 901C1371.3 901 1302.7 901 1234.2 901C1165.7 901 1097.3 901 1028.8 901C960.3 901 891.7 901 823 901C754.3 901 685.7 901 617 901C548.3 901 479.7 901 411.2 901C342.7 901 274.3 901 205.8 901C137.3 901 68.7 901 34.3 901L0 901Z" fill="#ff7e55"></path><path d="M0 806L34.3 806.3C68.7 806.7 137.3 807.3 205.8 811.7C274.3 816 342.7 824 411.2 829.8C479.7 835.7 548.3 839.3 617 832.2C685.7 825 754.3 807 823 798.3C891.7 789.7 960.3 790.3 1028.8 791.3C1097.3 792.3 1165.7 793.7 1234.2 803.5C1302.7 813.3 1371.3 831.7 1405.7 840.8L1440 850L1440 901L1405.7 901C1371.3 901 1302.7 901 1234.2 901C1165.7 901 1097.3 901 1028.8 901C960.3 901 891.7 901 823 901C754.3 901 685.7 901 617 901C548.3 901 479.7 901 411.2 901C342.7 901 274.3 901 205.8 901C137.3 901 68.7 901 34.3 901L0 901Z" fill="#ff6f61"></path></svg>