<svg id="visual" viewBox="0 0 900 600" width="900" height="600" xmlns="http://www.w3.org/2000/svg" xmlns:xlink="http://www.w3.org/1999/xlink" version="1.1"><path d="M0 211L82 211L82 211L164 211L164 145L245 145L245 169L327 169L327 205L409 205L409 103L491 103L491 79L573 79L573 151L655 151L655 241L736 241L736 139L818 139L818 91L900 91L900 217L900 0L900 0L818 0L818 0L736 0L736 0L655 0L655 0L573 0L573 0L491 0L491 0L409 0L409 0L327 0L327 0L245 0L245 0L164 0L164 0L82 0L82 0L0 0Z" fill="#ff6f61"></path><path d="M0 241L82 241L82 271L164 271L164 181L245 181L245 235L327 235L327 259L409 259L409 157L491 157L491 109L573 109L573 217L655 217L655 289L736 289L736 187L818 187L818 139L900 139L900 265L900 215L900 89L818 89L818 137L736 137L736 239L655 239L655 149L573 149L573 77L491 77L491 101L409 101L409 203L327 203L327 167L245 167L245 143L164 143L164 209L82 209L82 209L0 209Z" fill="#f46161"></path><path d="M0 343L82 343L82 325L164 325L164 253L245 253L245 367L327 367L327 373L409 373L409 277L491 277L491 235L573 235L573 295L655 295L655 373L736 373L736 259L818 259L818 259L900 259L900 367L900 263L900 137L818 137L818 185L736 185L736 287L655 287L655 215L573 215L573 107L491 107L491 155L409 155L409 257L327 257L327 233L245 233L245 179L164 179L164 269L82 269L82 239L0 239Z" fill="#e85461"></path><path d="M0 421L82 421L82 487L164 487L164 433L245 433L245 445L327 445L327 439L409 439L409 403L491 403L491 409L573 409L573 439L655 439L655 475L736 475L736 403L818 403L818 445L900 445L900 463L900 365L900 257L818 257L818 257L736 257L736 371L655 371L655 293L573 293L573 233L491 233L491 275L409 275L409 371L327 371L327 365L245 365L245 251L164 251L164 323L82 323L82 341L0 341Z" fill="#db4761"></path><path d="M0 475L82 475L82 511L164 511L164 475L245 475L245 475L327 475L327 469L409 469L409 445L491 445L491 457L573 457L573 469L655 469L655 511L736 511L736 433L818 433L818 469L900 469L900 517L900 461L900 443L818 443L818 401L736 401L736 473L655 473L655 437L573 437L573 407L491 407L491 401L409 401L409 437L327 437L327 443L245 443L245 431L164 431L164 485L82 485L82 419L0 419Z" fill="#cd3b61"></path><path d="M0 565L82 565L82 565L164 565L164 535L245 535L245 535L327 535L327 523L409 523L409 541L491 541L491 547L573 547L573 541L655 541L655 577L736 577L736 535L818 535L818 535L900 535L900 553L900 515L900 467L818 467L818 431L736 431L736 509L655 509L655 467L573 467L573 455L491 455L491 443L409 443L409 467L327 467L327 473L245 473L245 473L164 473L164 509L82 509L82 473L0 473Z" fill="#bf2f60"></path><path d="M0 601L82 601L82 601L164 601L164 601L245 601L245 601L327 601L327 601L409 601L409 601L491 601L491 601L573 601L573 601L655 601L655 601L736 601L736 601L818 601L818 601L900 601L900 601L900 551L900 533L818 533L818 533L736 533L736 575L655 575L655 539L573 539L573 545L491 545L491 539L409 539L409 521L327 521L327 533L245 533L245 533L164 533L164 563L82 563L82 563L0 563Z" fill="#b0235f"></path></svg>