<svg id="visual" viewBox="0 0 900 600" width="900" height="600" xmlns="http://www.w3.org/2000/svg" xmlns:xlink="http://www.w3.org/1999/xlink" version="1.1"><rect width="900" height="600" fill="#093f8f"></rect><g><g transform="translate(712 161)"><path d="M98.6 -33.4C110.3 4 90.2 50.3 57 73.2C23.7 96.2 -22.7 95.7 -55.9 72.6C-89.1 49.5 -109 3.8 -97.4 -33.3C-85.9 -70.5 -43 -99 0.2 -99.1C43.4 -99.2 86.9 -70.8 98.6 -33.4Z" stroke="#4FACF7" fill="none" stroke-width="20"></path></g><g transform="translate(683 572)"><path d="M74.2 -22.9C84.2 6.8 72.2 44.9 47.2 62.5C22.2 80 -15.9 77.1 -42.4 58C-68.9 38.8 -83.9 3.3 -74.9 -24.9C-65.9 -53.1 -33 -74.1 -0.5 -73.9C32.1 -73.8 64.1 -52.5 74.2 -22.9Z" stroke="#4FACF7" fill="none" stroke-width="20"></path></g><g transform="translate(101 314)"><path d="M70.4 -20.6C79.2 4.2 65.9 38.3 42.5 54.3C19.2 70.4 -14.4 68.2 -35.5 52.1C-56.6 36 -65.3 6 -57.3 -17.7C-49.3 -41.4 -24.6 -58.7 3.1 -59.7C30.8 -60.7 61.6 -45.4 70.4 -20.6Z" stroke="#4FACF7" fill="none" stroke-width="20"></path></g><g transform="translate(436 267)"><path d="M44.4 -16C50.3 3.6 42.7 26 26.2 38.7C9.6 51.3 -16 54.3 -31.3 43.1C-46.7 32 -51.8 6.7 -44.9 -14.3C-37.9 -35.4 -19 -52.3 0.2 -52.4C19.3 -52.4 38.5 -35.6 44.4 -16Z" stroke="#4FACF7" fill="none" stroke-width="20"></path></g><g transform="translate(50 18)"><path d="M51.4 -16.9C58.6 5.7 51.2 33 32.1 47.7C13 62.4 -17.8 64.5 -35.5 51.1C-53.2 37.7 -57.9 8.7 -49.8 -15C-41.7 -38.7 -20.9 -57 0.6 -57.2C22 -57.4 44.1 -39.4 51.4 -16.9Z" stroke="#4FACF7" fill="none" stroke-width="20"></path></g><g transform="translate(265 584)"><path d="M54.7 -15.8C62 4.5 52.7 32.1 34.4 44.7C16.1 57.4 -11.1 55 -29.5 41.5C-47.8 27.9 -57.4 3.1 -51 -16C-44.6 -35.2 -22.3 -48.6 0.7 -48.8C23.7 -49.1 47.5 -36.1 54.7 -15.8Z" stroke="#4FACF7" fill="none" stroke-width="20"></path></g></g></svg>